<svg width="86" height="43" viewBox="0 0 86 43" fill="none" xmlns="http://www.w3.org/2000/svg">
<path d="M0 27.9989V19.4421H8.55764V27.9989H0ZM26.0956 27.9989V19.4421H34.6532V27.9989H26.0956ZM51.7685 27.9989V19.4421H60.3262V27.9989H51.7685ZM77.4424 27.9989V19.4421H86V27.9989H77.4424Z" fill="white"/>
<path d="M34.2289 0H0.422677L0 14.914L2.24351 15.3015C2.66233 10.9079 3.81549 7.64732 5.703 5.51984C7.69075 3.29338 10.4278 2.13035 13.9466 2.03074V33.2254C13.9466 35.9499 13.5661 37.7187 12.771 38.5344C12.0943 39.2283 10.9507 39.6558 9.34018 39.8168C8.86159 39.8568 8.04648 39.8769 6.89475 39.8769V42.2631H27.7585V39.8769C26.6056 39.8769 25.7905 39.8568 25.3131 39.8168C23.7026 39.6558 22.5592 39.2283 21.8832 38.5344C21.0881 37.7187 20.7031 35.9499 20.7031 33.2254V2.02993C24.2218 2.12954 26.9635 3.29257 28.952 5.51903C30.8408 7.64651 31.994 10.907 32.4116 15.3007L34.6551 14.9131L34.2289 0Z" fill="white"/>
</svg>
