<svg width="165" height="63" viewBox="0 0 165 63" fill="none" xmlns="http://www.w3.org/2000/svg">
<path d="M45 37.2004V29.6387H52.5626V37.2004H45ZM68.0612 37.2004V29.6387H75.6238V37.2004H68.0612ZM90.7489 37.2004V29.6387H98.3115V37.2004H90.7489ZM113.437 37.2004V29.6387H121V37.2004H113.437Z" fill="white"/>
<path d="M75.2488 12.4573H45.3735L45 25.6371L46.9826 25.9796C47.3528 22.0968 48.3718 19.2154 50.0399 17.3353C51.7965 15.3677 54.2153 14.3399 57.3249 14.2519V41.8193C57.3249 44.227 56.9886 45.7901 56.286 46.511C55.688 47.1241 54.6774 47.502 53.2541 47.6442C52.8312 47.6796 52.1108 47.6974 51.093 47.6974V49.8061H69.5308V47.6974C68.5119 47.6974 67.7916 47.6796 67.3697 47.6442C65.9465 47.502 64.936 47.1241 64.3386 46.511C63.636 45.7901 63.2958 44.227 63.2958 41.8193V14.2512C66.4053 14.3392 68.8282 15.367 70.5855 17.3346C72.2547 19.2147 73.2737 22.0961 73.6428 25.9789L75.6255 25.6363L75.2488 12.4573Z" fill="white"/>
</svg>
