<svg width="101" height="101" viewBox="0 0 101 101" fill="none" xmlns="http://www.w3.org/2000/svg">
<g clip-path="url(#clip0_75_1198)">
<path d="M38.0874 25.4638C38.0874 25.4638 36.4488 24.8125 37.6142 20.1364C37.9058 18.9669 37.9129 17.6732 37.3824 16.5681C37.0508 15.8774 36.4964 15.3464 35.8487 14.9512C35.1849 14.5464 34.3305 14.3571 33.8334 13.7244C33.0247 12.6946 34.7677 12.0394 35.4643 11.7697C36.5318 11.3565 37.345 10.6942 37.759 9.60191C38.1602 8.54248 38.1453 7.33565 37.8324 6.25562C37.3772 4.68448 36.0432 3.48409 34.4586 3.11078C33.7117 2.93506 32.9237 2.96403 32.18 3.14039C30.4203 3.55747 28.689 4.64651 27.1231 5.52058C25.4723 6.44099 23.8684 7.44571 22.3187 8.52768C18.7678 11.007 15.5035 13.8963 12.6138 17.1229C11.8631 17.9609 11.1394 18.8227 10.4453 19.7078C9.7229 20.6282 9.03204 21.5743 8.37595 22.543C7.71986 23.5117 7.05024 24.5808 6.44631 25.6351C5.81919 26.7299 5.23457 27.8492 4.69566 28.9904C4.15675 30.1315 3.62428 31.3866 3.16392 32.616C2.68425 33.8975 2.25994 35.2002 1.89166 36.5178C1.52337 37.8353 1.18148 39.2944 0.918145 40.7034C0.640642 42.185 0.430101 43.6783 0.283301 45.1786C0.128131 46.7646 0.04443 48.3569 0.0270458 49.9506C0.0199634 50.602 -0.0225312 51.254 0.0206073 51.9047C0.0618142 52.5271 0.146159 53.2596 0.600079 53.7256C1.04177 54.1793 1.57166 53.8054 1.91097 53.4205C2.47435 52.782 2.85873 51.9768 3.21092 51.2102C4.27973 48.6665 5.62925 46.211 7.07857 43.8675C8.47124 41.6148 10.0641 39.4148 11.9024 37.4742C13.6981 35.5793 15.7198 34.1202 17.8851 32.6875C18.7144 32.1384 21.9601 30.0395 20.4071 28.8352C20.1959 28.6711 19.9145 28.601 19.7252 28.4143C19.5211 28.2135 19.402 27.9045 19.3312 27.6329C19.1354 26.885 19.1928 26.092 19.2758 25.3332C19.4876 23.3984 20.5069 21.6715 21.857 20.3038C22.1081 20.0495 22.3708 19.8062 22.6419 19.5732C23.1448 19.1413 23.6888 18.6161 24.343 18.4275C24.6037 18.3522 24.9012 18.3587 25.1272 18.5086C25.303 18.6245 25.4189 18.815 25.4813 19.0158C25.5946 19.3827 25.5708 19.794 25.5489 20.1725C25.4987 21.0581 25.3036 21.9373 25.0828 22.7947C24.6655 24.4121 23.7468 25.8365 23.2285 27.4257C22.9207 28.3686 22.6696 29.8207 24.0468 29.9108C24.1421 29.9172 24.238 29.9153 24.3333 29.9101C27.5462 29.7331 36.0657 29.3656 38.3501 28.1401C40.6345 26.9146 38.0887 25.4658 38.0887 25.4658L38.0874 25.4638ZM31.3572 9.63538C30.8047 11.6184 28.7985 12.609 27.0684 13.3955C26.1844 13.7978 25.1137 14.3507 24.1292 14.3835C23.947 14.39 23.7416 14.3584 23.6322 14.213C23.5343 14.0823 23.5459 13.8944 23.6167 13.7476C23.6875 13.6002 23.8079 13.4844 23.9238 13.3692C24.7744 12.5241 25.4968 11.5618 26.1709 10.5738C26.4304 10.1934 26.677 9.81947 26.9422 9.46739C27.3601 8.91257 27.825 8.41053 28.4624 8.02049C28.9614 7.71476 29.555 7.52617 30.1332 7.61435C30.712 7.70253 31.2599 8.10866 31.4061 8.67507C31.4872 8.98917 31.4434 9.32322 31.3565 9.63538H31.3572Z" fill="#F85F00"/>
<path d="M66.3515 19.3003C67.1878 18.638 64.7927 14.0289 64.4572 13.3795C63.2758 11.0913 61.8232 8.93768 60.0706 7.04666C55.0048 1.57956 46.2528 -1.52409 38.9341 0.816195C38.6173 0.917247 38.3083 1.0331 38.0591 1.26224C36.7128 2.5019 38.1582 4.29444 38.927 5.41181C40.1078 7.12711 40.4742 9.53562 40.6583 11.5843C40.8341 13.5449 40.8425 15.5698 40.3737 17.493C39.9494 19.2327 38.5478 20.6996 38.3289 22.4516C38.2342 23.2111 38.4454 24.0047 38.9058 24.6168C40.0415 26.1255 42.1411 26.0084 43.7868 25.6293C45.155 25.3139 46.4872 24.844 47.7511 24.2326C48.7883 23.7305 49.9009 22.9408 49.9453 21.7899C49.9943 20.5226 48.7548 19.6511 47.979 18.6483C47.4394 17.9513 47.0963 17.1049 46.9965 16.2295C46.9269 15.618 46.9791 14.9796 47.2489 14.4267C47.8715 13.1484 49.4824 12.6521 50.9008 12.7583C52.2021 12.8555 53.623 13.5108 53.972 14.7672C54.1858 15.5363 53.9488 16.3595 53.6173 17.0862C52.6154 19.2804 50.7875 21.1231 51.0199 23.6913C51.0521 24.0459 51.2762 24.443 51.6322 24.4463C51.7938 24.4475 51.9439 24.3652 52.0746 24.2705C52.7583 23.7782 53.1015 22.9549 53.5599 22.2482C55.2456 19.6485 58.5492 18.5994 61.6384 18.3529C62.771 18.2621 63.9789 18.2711 64.9517 18.8588C65.3213 19.0821 65.6825 19.3943 66.1139 19.3801C66.2117 19.3769 66.2897 19.3499 66.3508 19.301L66.3515 19.3003ZM51.6103 8.40217C51.1101 9.10696 50.0323 9.42942 49.0742 9.65599C48.7413 9.73451 48.4233 9.80209 48.1483 9.86967C47.2695 10.0866 45.7706 10.279 45.8942 8.93382C45.9605 8.21551 46.1298 7.5133 46.2702 6.80722C46.388 6.21378 46.4279 5.54118 47.2289 5.61391C48.3132 5.71174 49.5152 6.34123 50.4939 6.78083C51.0792 7.04408 52.1647 7.62079 51.6097 8.40217H51.6103Z" fill="#F85F00"/>
<path d="M92.5674 23.858C92.2416 21.5441 90.1143 18.9322 89.0635 17.4852C86.5126 13.9716 83.2115 11.0392 79.622 8.61971C75.2972 5.70466 70.4895 3.46542 65.4926 1.97796C62.7896 1.17405 60.0307 0.529768 57.2422 0.10432C56.2255 -0.0507978 53.9121 -0.255476 55.0917 1.33175C56.0188 2.57913 57.3426 3.43968 58.5988 4.31889C59.8337 5.18266 61.0287 6.14298 62.1001 7.20756C63.8069 8.90227 65.2833 10.9252 66.2909 13.1439C66.7874 14.2368 67.2046 15.4526 67.4666 16.6562C67.607 17.3005 67.7081 17.9525 67.7667 18.609C67.8143 19.1413 67.7248 19.7933 67.9611 20.2883C68.2605 20.9152 69.102 21.3677 69.5424 21.9161C71.9788 24.9483 72.0567 29.5909 70.2371 32.9359C69.6403 34.0333 68.784 34.8076 67.8909 35.6437C67.7609 35.7653 67.6263 35.8934 67.5632 36.0608C67.032 37.4613 70.1702 37.9891 70.9943 38.1172C74.9444 38.7306 79.1855 37.8694 81.6315 34.4285C82.5741 33.1026 81.9438 32.0058 81.4834 30.6175C80.9194 28.9157 80.3 27.2319 79.7965 25.5108C79.4932 24.4733 79.1172 22.5797 80.7707 22.8841C81.4428 23.0077 82.0275 23.4718 82.578 23.8348C84.5359 25.1253 86.8699 27.2152 89.3069 27.4257C90.1987 27.5029 91.131 27.2004 91.7581 26.5625C92.5133 25.794 92.7065 24.8537 92.5668 23.8586L92.5674 23.858ZM80.4732 17.5837C79.0754 17.6758 77.6106 17.4601 76.3287 16.8809C75.3944 16.4586 75.1936 15.1881 74.7486 14.3726C74.1486 13.2733 73.3244 12.3091 72.4765 11.3951C72.3297 11.2374 71.8655 10.8422 71.4837 10.4058C71.0793 9.94369 70.767 9.43521 71.0201 9.11146C71.4708 8.53411 73.5131 9.49893 73.9998 9.78664C74.0307 9.80466 79.9156 13.2919 81.833 15.9984C82.6262 17.119 81.4274 17.52 80.4738 17.5824L80.4732 17.5837Z" fill="#F85F00"/>
<path d="M37.5652 52.0315C37.5594 52.0231 37.5536 52.0141 37.5478 52.0058C35.0284 48.2662 34.7773 42.754 34.919 38.4339C34.919 38.4339 36.1867 29.6025 28.0207 30.9721C19.8546 32.3418 14.3561 38.8632 14.3561 38.8632C11.4381 41.6734 8.80604 45.1316 7.13652 48.8236C6.35552 50.5518 5.64148 52.6076 5.81919 54.5301C5.99947 56.4752 7.631 57.6132 9.41899 58.0051C11.2675 58.4106 13.1817 58.5007 15.0656 58.3405C16.3372 58.2324 18.7903 58.1693 19.5894 56.9566C20.0195 56.304 20.004 55.215 19.6183 54.5469C18.9243 53.3445 17.3874 53.0581 16.1904 52.6153C15.3921 52.3199 14.5911 51.8995 14.1269 51.1858C13.7579 50.6187 13.6395 49.912 13.7174 49.24C14.123 45.7206 17.7776 45.8474 20.4856 46.1969C21.4887 46.3262 22.5048 46.6165 23.2832 47.2621C26.5205 49.9467 21.4405 52.4293 22.1229 55.3031C22.7674 58.0154 26.411 59.1888 28.7804 59.6175C30.8858 59.9992 33.0602 60.0803 35.1952 59.9689C35.3954 59.9586 35.595 59.9399 35.7946 59.9303C36.8467 59.8781 38.0391 59.5235 38.8349 58.8168C41.006 56.8878 38.7647 53.8092 37.5652 52.0309V52.0315ZM24.6733 40.6931C24.663 41.7319 23.4654 41.9295 22.6644 41.9868C21.924 42.0396 21.1784 42.0126 20.4438 41.907C19.9319 41.8336 18.8142 41.7821 18.5695 41.2189C18.4092 40.8501 18.6648 40.4382 18.8779 40.1492C19.4947 39.3138 20.3118 38.5974 21.1185 37.9486C21.8828 37.3339 22.9065 36.9265 23.8105 37.5122C23.8124 37.5135 23.815 37.5148 23.8169 37.5167C24.8529 38.1867 24.6836 39.6304 24.6733 40.6931Z" fill="#F85F00"/>
<path d="M38.7834 37.4935C38.6881 38.477 38.5645 39.4592 38.5168 40.4459C38.2561 45.8609 40.4053 51.3479 44.2749 55.1461C48.1444 58.9442 53.672 60.9916 59.0829 60.6318C62.4072 60.4104 65.9284 59.0485 67.992 56.2918C70.7632 52.5895 69.2211 48.1394 69.3576 43.9184C69.3673 43.6249 69.384 43.332 69.4117 43.0404C69.4555 42.5802 69.6242 42.0776 69.9558 41.7422C70.3092 41.385 70.8688 41.2814 71.0671 40.7639C71.3407 40.0494 70.5391 39.4026 69.8328 39.1065C67.7061 38.2131 65.4005 37.9093 63.1618 37.4221C62.0389 37.1775 60.9205 36.8879 59.8562 36.4508C59.3398 36.2391 58.8209 35.9977 58.3451 35.7049C57.9356 35.4532 57.5808 35.1204 57.0561 35.2247C56.6292 35.3097 56.2693 35.6662 56.1804 36.0923C56.004 36.9387 56.7618 37.836 57.2531 38.4539C57.8609 39.2185 58.5576 39.9091 59.1344 40.6989C59.9148 41.7673 60.4499 43.0096 60.7087 44.3059C60.8561 45.046 60.972 45.8364 60.9469 46.5914C60.9263 47.1997 60.7595 47.8292 60.3423 48.2726C59.9715 48.6665 59.4371 48.8757 58.9007 48.951C57.6993 49.1197 56.4161 48.8661 55.2726 48.5101C52.5233 47.6541 49.9479 45.9774 48.4625 43.5116C46.7563 40.6783 46.5631 35.6785 49.9002 33.8833C50.4855 33.5686 51.0437 33.53 51.3927 32.8954C51.7088 32.3206 51.6818 31.5855 51.5627 30.9612C51.273 29.4448 50.3934 27.9605 48.9847 27.3266C47.4948 26.6559 45.7512 27.0446 44.2169 27.6046C42.2519 28.3223 40.3847 29.307 38.6804 30.5203C37.8099 31.1401 34.6106 33.2307 37.354 33.772C37.7519 33.8505 38.1814 33.913 38.4814 34.1865C38.8735 34.5437 38.916 35.1378 38.9044 35.6682C38.8909 36.2777 38.8426 36.8853 38.784 37.4929L38.7834 37.4935Z" fill="#F85F00"/>
<path d="M85.3259 34.8424C86.2473 33.6864 87.0991 32.4673 88.1306 31.4092C89.6835 29.8162 91.883 28.5643 94.0611 29.02C95.6463 29.3515 96.9508 30.5583 97.7054 31.9904C98.6029 33.6922 98.787 35.8194 97.9359 37.5444C97.0847 39.2693 95.1145 40.4549 93.2151 40.1441C92.1759 39.9741 91.2397 39.4026 90.2076 39.1953C88.9193 38.9366 87.5781 39.2648 86.3702 39.783C84.6331 40.5277 83.0685 41.6708 81.8311 43.0984C81.5194 43.4575 81.2104 43.9261 81.3662 44.3754C81.4982 44.7564 81.9148 44.9559 82.3056 45.057C83.7337 45.4277 85.2062 45.0074 86.481 44.3458C87.4674 43.8341 88.3411 42.7733 89.491 42.6266C91.3602 42.3891 91.0382 45.3801 90.9745 46.4865C90.836 48.9002 90.4105 51.3016 89.5573 53.5698C89.1582 54.6318 88.3559 57.5501 86.8647 57.46C86.4868 57.4375 86.1404 57.225 85.879 56.9509C84.6878 55.7022 84.5816 53.7841 84.1129 52.2124C83.979 51.7625 83.76 51.2662 83.3119 51.1259C82.7807 50.9592 82.2521 51.3904 81.9225 51.839C80.9689 53.1366 80.6682 54.8893 81.1344 56.4301C81.6006 57.971 82.8226 59.2635 84.3357 59.8151C84.7786 59.9766 85.2654 60.0905 85.597 60.4259C86.1475 60.9813 86.0284 61.9603 85.532 62.5647C85.0355 63.1691 84.2693 63.4768 83.5225 63.7091C78.5615 65.2506 73.2053 64.4519 68.1008 63.487C67.0661 63.2914 65.7732 62.7881 65.8048 61.7357C65.8306 60.8771 66.7429 60.3789 67.4659 59.9142C69.93 58.3308 71.2177 55.372 71.5506 52.4627C71.8835 49.5541 71.4019 46.623 71.0651 43.7143C71.0162 43.2902 70.9769 42.83 71.1997 42.4657C71.4617 42.0364 71.9974 41.878 72.4842 41.7532C76.572 40.7021 80.8344 39.476 83.8463 36.5197C84.3794 35.9964 84.863 35.4281 85.3285 34.8437L85.3259 34.8424Z" fill="#F85F00"/>
<path d="M16.1479 60.4478C13.9389 60.4948 11.7227 60.2386 9.58318 59.6889C7.584 59.1753 3.13623 56.5943 1.67403 59.3549C0.71082 61.1732 2.08996 63.6814 2.97977 65.2268C3.89276 66.8134 5.51657 69.014 7.63422 68.2307C9.20716 67.6495 9.67396 65.6465 11.2102 65.1644C11.6223 65.035 12.138 65.1283 12.3679 65.4946C12.8385 66.2431 12.5977 67.3006 12.4747 68.1148C12.1554 70.2247 12.1953 72.3629 11.8959 74.474C11.8341 74.9111 11.7163 75.4897 11.3531 75.7896C11.0724 76.0213 10.8207 75.9814 10.4878 75.8804C9.46277 75.5689 8.84531 74.4882 7.73917 74.3601C7.59688 74.3434 7.44621 74.3459 7.31873 74.411C7.14682 74.4985 7.04509 74.6858 7.01161 74.8757C6.91503 75.4176 7.25241 75.9473 7.46231 76.4223C9.12733 80.1922 12.1155 83.1104 15.0746 85.8845C18.3152 88.9225 21.7778 91.6895 25.5071 94.1103C26.5939 94.8157 28.3445 96.1062 29.7147 95.8307C31.0372 95.5649 31.1666 94.017 30.9528 92.9228C30.6 91.1128 30.2066 89.1832 28.9704 87.744C27.9157 86.5159 26.4014 85.786 25.2083 84.6771C20.4837 80.2835 21.6458 73.1726 20.653 67.4152C20.5036 66.5489 20.324 65.6684 20.5487 64.7969C20.749 64.0193 21.3954 64.1963 21.6703 64.7956C22.0193 65.5557 21.9781 66.4748 21.9343 67.2884C21.924 67.4789 21.9143 67.6785 21.9955 67.8516C22.1275 68.1329 22.4777 68.2635 22.7855 68.2165C23.0932 68.1695 23.3598 67.979 23.5832 67.7621C24.2026 67.1603 24.775 66.7439 25.3075 66.0365C25.9127 65.2326 26.1535 64.1764 25.9996 63.1858C25.8155 62.0002 25.0209 60.6769 24.0094 60.0043C22.9406 59.2937 21.2917 59.8028 20.1469 60.0249C18.829 60.2798 17.4897 60.4207 16.1486 60.4497L16.1479 60.4478Z" fill="#F85F00"/>
<path d="M58.8608 42.3209C59.3869 42.7257 58.7192 43.6416 58.3818 44.0162C58.1867 44.2325 58.1455 44.3837 58.0193 44.6476C57.5609 45.6028 57.0129 46.4698 56.4779 47.4172L55.9004 47.255L56.3105 46.2619L55.6551 47.1842L53.9624 46.4826C54.1227 45.5384 53.5896 44.9617 52.8285 44.5736C52.1132 44.2087 51.4191 44.0967 50.7289 44.7229C50.2866 44.3078 49.1495 43.4273 49.4824 42.8062L49.2493 42.9162C49.183 42.8023 48.9416 42.3447 49.0195 42.1509C49.2506 41.5781 49.5545 40.8836 49.8957 40.3906C50.0709 40.137 50.067 39.9876 50.1842 39.7328L53.2998 32.9539C52.4673 32.1809 52.1389 30.9895 52.6856 29.9294C52.4293 28.4014 52.6476 26.9095 53.077 25.4181C52.9038 24.9727 52.7661 24.4668 53.0146 24.0195C53.2354 23.6224 53.6378 23.3315 54.2038 23.2607C55.4793 21.5074 57.2068 20.186 59.3212 19.6112C63.785 18.3973 68.3841 20.8824 69.8309 25.2669C70.4921 27.2699 70.3904 29.3785 69.6705 31.3712C69.9635 31.8861 69.8811 32.3495 69.7221 32.8155C69.5405 33.3485 68.8921 33.2616 68.5631 33.586C67.4769 34.6576 66.4809 35.8387 65.0122 36.4064L64.7901 36.8924C63.6344 36.6851 62.5636 36.3942 61.4678 35.9514L58.2215 34.639C57.5673 34.3744 56.8462 34.4993 56.2326 34.6757L53.6861 33.1972L53.153 34.2792L55.3969 35.6785L55.2874 36.4521L53.0461 35.2324C53.7267 35.905 54.4723 36.3478 55.3209 36.8589C55.4767 37.9595 56.1289 38.8201 56.984 39.559C57.7405 40.2123 58.2962 41.1282 58.7572 41.9881C58.5035 42.4464 58.3361 42.7328 58.1429 43.2387L58.8602 42.3202L58.8608 42.3209ZM62.4323 19.7509C61.9649 19.7419 61.6449 19.7528 61.2128 19.8088C61.2347 20.0032 61.3583 20.3314 61.4826 20.3141C61.8387 20.2639 62.9152 20.1602 62.4323 19.7509ZM62.807 19.8551C62.7465 19.8674 62.8894 20.0534 62.9467 20.0315L63.1077 19.9704C63.1463 19.9555 63.0897 19.7972 63.0498 19.8056L62.807 19.8551ZM59.9367 20.7672L61.1381 20.3997C61.0944 20.2536 60.9804 19.9877 60.8883 19.8983L59.7584 20.2478L59.9367 20.7672ZM63.2803 20.9545L64.3536 20.7279C64.3169 20.5232 64.154 20.121 63.9673 20.0843C63.6202 20.0154 63.2854 20.0952 62.9274 20.2188L63.2803 20.9545ZM61.7801 21.2963L62.9828 20.977L62.6499 20.2336L61.4781 20.5265L61.7801 21.2963ZM65.1288 20.5561L64.4991 20.2787C64.5145 20.4125 64.5693 20.6771 64.6781 20.6681C64.8268 20.6558 65.0683 20.5915 65.1281 20.5561H65.1288ZM58.4745 21.2049L59.6701 20.8232L59.4847 20.3411L58.3148 20.6996L58.4745 21.2055V21.2049ZM61.5097 21.3445L61.1942 20.5812L59.994 20.9294L60.2438 21.7056L61.5097 21.3445ZM65.1313 21.8582L66.1023 21.6593C66.0102 21.3825 65.8872 20.9223 65.6709 20.8309C65.423 20.726 65.0303 20.8515 64.7521 20.9255L65.132 21.8588L65.1313 21.8582ZM57.0818 21.7236C57.481 21.5659 57.9131 21.3889 58.1391 21.2802C58.2653 21.219 58.0708 20.755 57.9498 20.7994L56.946 21.1643C56.9466 21.3278 57.0168 21.6155 57.0818 21.7236ZM64.8571 21.8871L64.483 20.9416L63.3466 21.1637L63.7149 22.1163L64.8571 21.8871ZM59.7191 20.9931L58.4764 21.3877L58.7275 22.1787L59.9702 21.7841L59.7191 20.9931ZM66.7442 21.5756L66.1963 21.1405L66.2729 21.5074C66.2942 21.6097 66.5079 21.6355 66.7442 21.5762V21.5756ZM63.4264 22.18L63.0749 21.2177L61.8709 21.5209L62.2012 22.4864L63.4264 22.18ZM56.7541 21.8704C56.7606 21.6696 56.7464 21.5376 56.6769 21.3561C56.2603 21.6831 56.0407 21.8691 55.7072 22.218L56.7541 21.871V21.8704ZM58.4539 22.2624L58.2221 21.4887L57.087 21.8871L57.2724 22.7013L58.4539 22.2624ZM61.9088 22.5687L61.5779 21.5936L60.3288 21.9451L60.643 22.9067L61.9088 22.5687ZM67.6424 22.8256L67.3797 22.1369C67.2329 21.7526 66.7545 21.7333 66.459 21.9264L66.8614 22.9421L67.6417 22.8249L67.6424 22.8256ZM66.6174 22.9736L66.2246 21.9174L65.2253 22.0841L65.6336 23.1841L66.6167 22.9742L66.6174 22.9736ZM57.0091 22.7947L56.8288 21.9959L55.7375 22.4394L55.9242 23.2356L57.0084 22.7953L57.0091 22.7947ZM60.0314 22.0268L58.7694 22.4175L59.0765 23.4087L60.3385 23.018L60.0314 22.0268ZM65.3606 23.2278L64.9401 22.1323L63.8269 22.4123L64.2254 23.4937L65.3612 23.2278H65.3606ZM62.7027 23.9024L63.9048 23.5471L63.5262 22.4728L62.3093 22.7792L62.7027 23.9024ZM55.6769 23.343L55.5089 22.4986C55.1799 22.738 54.9513 22.9742 54.7556 23.2729C54.8258 23.39 55.0981 23.5986 55.2127 23.5477L55.6769 23.3424V23.343ZM58.7939 23.4859L58.4874 22.516L57.313 22.9549L57.5815 23.9487L58.7932 23.4859H58.7939ZM62.0305 22.832L60.737 23.2079L61.0712 24.3568L62.3647 23.9809L62.0305 22.832ZM68.7698 24.0311C68.6384 23.6147 68.417 23.233 68.012 22.953C67.9984 23.3295 68.124 23.6546 68.2444 24.0337C68.2869 24.1682 68.7408 24.1766 68.7691 24.0311H68.7698ZM56.3948 24.3214C56.6517 24.3452 57.0979 24.1605 57.2602 24.0124L57.0593 23.0334L56.0111 23.4673C55.9377 23.7492 56.0066 24.286 56.3948 24.3214ZM68.1427 24.2004L67.7589 23.074L66.956 23.2105L67.3559 24.3684L68.1427 24.201V24.2004ZM67.1086 24.4005L66.732 23.2587C66.4036 23.3076 66.0405 23.3926 65.7424 23.4866L66.1474 24.658L67.1086 24.3999V24.4005ZM60.7731 24.4462L60.4119 23.3121L59.1551 23.7209L59.5118 24.8434L60.7731 24.4462ZM55.648 23.5683L55.3943 23.7202L55.5462 23.9738L55.7999 23.8219L55.648 23.5683ZM65.8409 24.7172L65.4552 23.5271L64.3291 23.7897L64.7322 25.0146L65.8415 24.7179L65.8409 24.7172ZM59.1866 24.9373L58.8524 23.8084L57.6336 24.2532L57.9768 25.3654L59.1866 24.9373ZM63.1882 25.451L64.3974 25.0712L64.0078 23.8889L62.7909 24.2171L63.1882 25.451ZM68.7511 25.6305L69.2662 25.46L68.9056 24.3034L68.4002 24.4565L68.7511 25.6299V25.6305ZM57.5152 25.0281L57.3478 24.3407L56.7593 24.5775L57.5152 25.0281ZM62.4684 24.2918L61.1967 24.6754L61.5715 25.9163L62.8431 25.5327L62.4684 24.2918ZM68.5219 32.1114L54.0557 24.4842C58.4803 27.7629 63.3607 30.3317 68.5219 32.1114ZM68.5741 25.6299L68.1916 24.4533L67.4486 24.676L67.7911 25.8101C68.0319 25.8275 68.3983 25.7528 68.5741 25.6299ZM66.6199 26.2169L67.5709 25.917L67.184 24.7005L66.2285 24.9747L66.6206 26.2169H66.6199ZM61.2457 26.0058L60.8478 24.7829L59.6161 25.1794L59.9489 26.3997L61.2457 26.0058ZM65.9336 24.9972L64.8159 25.3338L65.2047 26.623L66.3225 26.2864L65.9336 24.9972ZM59.477 26.1461L59.2639 25.2708L58.4706 25.5861L59.477 26.1461ZM64.512 25.4233L63.2828 25.7767L63.6556 27.071L64.8848 26.7177L64.512 25.4233ZM69.1432 27.1026L69.6396 26.9146L69.3312 25.7393L68.8271 25.9015L69.1432 27.1032V27.1026ZM53.9392 27.0144L53.6707 25.8738C53.1163 26.1892 53.1286 26.7601 53.2676 27.3323L53.9392 27.0144ZM62.9422 25.8687L61.6713 26.2562L62.0692 27.5595L63.3401 27.1721L62.9422 25.8687ZM68.2354 27.4173L68.9739 27.1425L68.6449 25.9273L67.8871 26.1686L68.2354 27.4173ZM54.7704 26.5992L53.9643 26.13L54.1516 26.932L54.7704 26.5992ZM67.0217 27.7868L67.9766 27.4649L67.6604 26.2381L66.7165 26.5059L67.0211 27.7868H67.0217ZM61.5843 27.3047L61.3287 26.363L60.4363 26.6765L61.5843 27.3047ZM66.41 26.6005L65.2897 26.9211L65.6619 28.2225L66.7822 27.902L66.41 26.6005ZM54.4897 28.3821L55.3409 28.0423L55.037 26.82L54.1883 27.1856L54.4897 28.3821ZM56.4315 27.5982L55.3776 26.9912L55.6055 27.9457L56.4315 27.5982ZM65.3515 28.3313L64.9788 27.0491L63.7934 27.3986L64.1334 28.6821L65.3515 28.3313ZM69.666 27.248C69.5984 27.1386 69.1902 27.36 69.2198 27.4881L69.4568 28.5231L69.7645 28.4426C69.8586 28.4182 69.9171 27.6535 69.666 27.2474V27.248ZM54.2991 28.4446L53.9669 27.2834C53.7512 27.3684 53.4692 27.5029 53.3256 27.6291L53.6069 28.7722L54.2984 28.4446H54.2991ZM68.5721 28.9151L69.3048 28.6286L69.0338 27.4353L68.2927 27.6979L68.5721 28.9151ZM63.6312 28.3519L63.4335 27.5023L62.5727 27.8112L63.6312 28.3512V28.3519ZM53.4447 28.7496C53.3803 28.4471 53.2496 27.9644 53.1395 27.6754C52.9702 28.1234 52.9843 28.5334 53.0397 28.9653C53.117 29.0219 53.4692 28.8642 53.4447 28.7503V28.7496ZM68.3448 28.9653L68.0545 27.7771L67.1106 28.106L67.4261 29.3263L68.3448 28.9659V28.9653ZM57.0863 29.141L56.7219 27.8833L55.6853 28.2528L56.06 29.5046L57.0863 29.141ZM58.3663 28.7033L57.0992 28.003L57.3967 29.0399L58.3663 28.7033ZM67.0513 29.3379C67.041 28.8848 66.9342 28.5572 66.8176 28.1916L65.7733 28.5585C65.81 28.8848 65.8975 29.2768 66.074 29.5336C66.2426 29.7795 67.0578 29.6295 67.0513 29.3379ZM54.9082 29.8831L55.7909 29.5709L55.4155 28.33L54.5682 28.664L54.9075 29.8831H54.9082ZM65.5582 29.2961L65.4333 28.6582L64.7953 28.9099L65.5589 29.2967L65.5582 29.2961ZM54.7099 29.9288L54.3416 28.7368L53.6578 29.0412L54.0158 30.2036C54.2489 30.1335 54.5289 30.0228 54.7099 29.9282V29.9288ZM69.8264 28.6859C69.5482 28.8378 69.5263 28.8758 69.4961 28.9595L69.6841 29.5812L69.8264 28.6853V28.6859ZM69.5791 30.0408L69.3377 28.8797L68.6159 29.2176L68.8393 30.3253L69.5791 30.0408ZM58.6509 29.0077L57.483 29.3592L57.8706 30.6458L59.0385 30.2944L58.6509 29.0077ZM53.5548 29.1822C53.5136 29.0811 53.1028 29.186 53.1163 29.2909C53.1743 29.7325 53.2509 30.2435 53.6121 30.3806C54.0673 30.5531 53.6031 29.3019 53.5548 29.1815V29.1822ZM60.3823 29.8162L59.0617 29.0979L59.3611 30.1856C59.7764 30.0607 60.0339 29.9777 60.3829 29.8162H60.3823ZM68.0654 30.4765C68.1877 30.53 68.6217 30.5229 68.5953 30.3774L68.3989 29.2832L67.5523 29.598C67.4061 30.0504 67.616 30.2802 68.0654 30.4772V30.4765ZM57.5776 30.7417L57.1752 29.4802L56.1444 29.8174L56.5462 31.0494L57.5776 30.7411V30.7417ZM66.9354 29.8174L67.0217 29.9739C67.0449 30.015 67.2355 30.071 67.231 30.0247C67.2258 29.9681 67.2542 29.8123 67.2065 29.8129L66.9354 29.8174ZM55.8753 29.8792L54.9899 30.1618L55.3904 31.4182L56.2757 31.1356L55.8753 29.8792ZM60.701 30.1444L59.4622 30.528L59.8479 31.7722L61.0866 31.3886L60.701 30.1444ZM55.12 31.3403L54.7858 30.2545C54.5193 30.2828 54.2167 30.4019 54.0956 30.5744C54.3757 30.9676 54.6635 31.153 55.1207 31.3403H55.12ZM62.5295 30.9245L61.1117 30.2133L61.4202 31.3088L62.5295 30.9245ZM69.4903 30.5634C69.5089 30.5049 69.4278 30.3382 69.3789 30.3587L69.1812 30.4437C69.084 30.4855 68.8271 30.707 68.9166 30.7617L69.2649 30.9734C69.3402 31.0191 69.4433 30.7108 69.4896 30.5634H69.4903ZM59.5343 31.8301L59.1396 30.6323L57.9781 30.9638L58.4114 32.1931L59.5343 31.8308V31.8301ZM58.0998 32.2697L57.6652 31.0429L56.644 31.3512L57.0413 32.5246L58.1004 32.2697H58.0998ZM63.532 36.3601L53.6501 31.1659C56.6447 33.4103 59.9863 35.1249 63.532 36.3601ZM62.7555 31.2431L61.4993 31.6274L61.858 32.8001L63.1141 32.4158L62.7555 31.2431ZM64.5654 31.9099L63.1476 31.2109L63.4155 32.3225L64.5654 31.9099ZM56.6459 32.3096L56.3994 31.4394L55.5868 31.6538L56.6459 32.3096ZM61.5618 32.858L61.1826 31.731L59.9715 32.0895L60.3552 33.2378L61.5618 32.858ZM66.3952 32.7447L65.0335 32.1043L65.2756 33.1908L66.3959 32.7447H66.3952ZM60.0429 33.3092L59.6096 32.1648L58.4822 32.4944L58.9162 33.5963L60.0429 33.3092ZM64.9929 33.286L64.6993 32.2343L63.5088 32.6237L63.7767 33.6542L64.9936 33.286H64.9929ZM58.4217 33.2989C58.3895 33.0762 58.3007 32.7666 58.1764 32.6495C58.0521 32.5323 57.6826 32.6714 57.5003 32.7859L58.4217 33.2989ZM63.1908 32.7113L61.9449 33.0968L62.2675 34.1382L63.5133 33.7527L63.1908 32.7113ZM67.9051 33.3948L66.7307 32.8683L66.8743 33.8479L67.9051 33.3942V33.3948ZM65.5241 34.3596L66.618 33.938L66.4506 33.0369L65.329 33.4392L65.5241 34.359V34.3596ZM61.9758 34.2225L61.6564 33.1921L60.4376 33.521L60.8181 34.5366L61.9758 34.2219V34.2225ZM60.3456 34.2811L60.1479 33.6104L59.457 33.8016L60.3456 34.2811ZM65.264 34.4362L65.0373 33.5628L63.8726 33.9393L64.0902 34.8391L65.2633 34.4369L65.264 34.4362ZM67.0075 34.5682L67.7782 33.7301C67.4756 33.8125 67.1106 33.9458 66.9367 34.0558C66.8466 34.115 66.9264 34.4182 67.0069 34.5682H67.0075ZM62.6731 35.2736L63.8256 34.928L63.5384 34.0385L62.3621 34.4137C62.4542 34.7445 62.554 35.0438 62.6737 35.2736H62.6731ZM65.6947 35.2923C66.083 35.1346 66.3753 35.0168 66.6187 34.8984C66.7951 34.8121 66.6979 34.3011 66.6084 34.1813L65.5486 34.5753L65.6947 35.2923ZM62.2546 35.1526L62.0801 34.5038C61.7917 34.5604 61.6165 34.61 61.3255 34.7207L62.2546 35.1526ZM65.3097 35.4165C65.4925 35.3541 65.3818 34.8404 65.2427 34.6969L64.1314 35.0496L64.3426 35.746L65.3097 35.4165ZM64.051 35.8973L63.8681 35.1378L62.9506 35.4487L64.051 35.8973ZM64.3594 35.9913C64.8873 36.2095 65.2466 35.8844 65.4752 35.5626C65.0502 35.6643 64.6575 35.7904 64.3594 35.9913ZM50.9221 39.6092C51.546 38.5214 52.1512 37.4337 52.43 36.2262C51.7662 37.3423 51.2826 38.4204 50.9221 39.6092ZM57.2982 43.8431C55.1303 42.3562 52.927 41.309 50.6001 40.3127C52.7274 41.7184 54.9713 42.9413 57.2982 43.8431Z" fill="#F85F00"/>
<path d="M53.6559 46.3211C52.7352 45.922 51.8653 45.4541 51.0206 44.9276C51.4996 44.3767 52.1628 44.524 52.6843 44.8632C53.249 45.1181 53.793 45.4824 53.6552 46.3211H53.6559Z" fill="#F85F00"/>
<path d="M47.0068 66.0919C49.7026 68.6664 51.6792 71.6542 52.6727 75.2515C53.3449 77.6858 53.6855 80.1336 53.625 82.6695C53.5773 84.6725 53.2329 86.6653 52.7107 88.5968C52.2909 90.1493 51.9181 93.3804 50.1996 94.0929C49.2628 94.481 47.1471 93.8966 46.1498 93.6224C44.2807 93.1088 42.4186 92.0674 40.7787 91.0568C39.6616 90.3688 38.5626 89.5707 37.8794 88.4507C37.0469 87.0856 36.9986 85.5724 38.1737 84.3803C38.8942 83.6498 39.8387 83.1941 40.7324 82.6888C41.6254 82.1836 42.5184 81.5811 43.0123 80.6813C43.1488 80.4335 43.2524 80.1606 43.2582 79.8774C43.2672 79.4075 43.0065 78.9757 42.7116 78.6101C40.6416 76.0452 37.074 76.1745 34.0878 75.9756C33.9538 75.9666 33.8122 75.9596 33.6944 76.0233C33.2469 76.2646 33.1246 77.205 32.9874 77.6279C32.2328 79.9527 31.5973 82.2917 30.8537 84.5979C30.7584 84.8946 30.6154 85.2177 30.3244 85.3278C30.139 85.3979 29.9297 85.3645 29.7398 85.3065C28.9202 85.0562 28.2975 84.3964 27.7522 83.7354C25.247 80.6993 22.3818 76.2138 23.5053 72.1106C24.0275 70.2047 25.5959 68.743 26.6989 67.1667C27.259 66.3661 27.7844 65.4939 27.9756 64.5227C28.1475 63.6525 27.5854 62.342 28.3342 61.6778C28.5223 61.5111 28.7772 61.4422 29.0251 61.3991C30.5704 61.132 32.0622 61.5947 33.5952 61.7074C34.9595 61.8078 36.3245 61.7009 37.6843 61.5922C38.2001 61.551 38.6836 61.5349 39.1601 61.6913L38.0578 64.1082C37.6135 65.0833 38.6553 66.218 38.6089 66.3113C38.578 66.3731 38.4538 66.4948 38.4138 66.5656L37.1712 68.7366C36.0728 68.9844 35.1701 69.6628 34.814 70.7229C34.7091 71.0357 34.7818 71.38 35.1025 71.5126C35.9575 71.8666 36.8306 71.9857 37.7526 72.0945C38.9296 72.2335 40.0647 72.3551 41.2494 72.4227C41.8784 72.4588 42.4624 72.6622 43.0812 72.1833C42.4991 71.6066 41.8978 71.1277 41.2777 70.6431L42.3955 68.6394C43.4404 69.0127 45.2155 69.108 45.7976 68.1283L47.008 66.0899L47.0068 66.0919Z" fill="#F85F00"/>
<path d="M80.197 81.6082C81.7197 79.5903 83.5379 75.6615 83.4497 73.2711C83.4291 72.7207 82.9842 72.3301 82.4382 72.3474C81.8349 72.3661 81.2722 72.5811 80.77 72.8939C79.4649 73.7074 78.1276 74.355 76.6667 74.8486C74.0764 75.724 67.4132 76.4088 66.477 72.8385C66.2459 71.958 66.2388 70.7795 66.871 70.049C68.0622 68.6742 70.1586 69.9943 71.5995 70.0831C73.7622 70.2157 75.9327 69.7394 77.9325 68.9355C83.3815 66.7445 87.4481 62.92 89.8709 57.5771C91.4896 54.0075 92.3807 50.1572 93.1926 46.3224C93.4469 45.1201 93.6999 43.9016 94.2414 42.7984C94.6625 41.9405 95.3405 41.1114 96.2792 40.9299C96.9134 40.8076 97.5734 41.0046 98.1348 41.3239C100.202 42.4998 100.996 45.1181 100.999 47.4957C101.003 50.9457 100.908 54.5011 98.6898 57.3357C97.066 59.4109 95.412 61.4634 93.8448 63.5823C92.3363 65.6214 90.6603 67.6218 89.9752 70.1146C89.8413 70.6032 89.7525 71.1644 90.0377 71.5834C90.7517 72.6332 92.6955 71.9567 93.5332 71.4837C93.9626 71.241 94.4899 70.9173 94.9014 71.1902C95.0656 71.2989 95.1641 71.4837 95.2227 71.671C95.4866 72.5128 95.0694 73.4043 94.6438 74.1779C90.7697 81.22 84.7394 88.8285 77.1734 91.9702C76.2707 92.3448 75.2071 92.8256 74.2039 92.7535C73.1763 92.6801 72.7282 91.9567 72.0032 91.2628C71.8719 91.1373 71.7347 91.0021 71.6884 90.8264C71.5982 90.4846 71.877 90.1647 72.141 89.9298C73.5594 88.6644 74.9669 87.4969 76.3023 86.1214C77.6878 84.6951 78.9987 83.196 80.197 81.6082Z" fill="#F85F00"/>
<path d="M68.8908 88.1707C68.3326 87.8 68.0023 87.1538 67.7074 86.5256C66.5253 84.0096 65.3432 81.4942 64.161 78.9782C63.5095 77.5918 62.7916 76.1282 61.4871 75.3236C61.3454 75.2361 61.1877 75.155 61.0216 75.1659C60.6681 75.1898 60.4782 75.5972 60.4344 75.9486C60.3378 76.7268 60.5818 77.5075 60.898 78.2245C61.7736 80.2115 63.2049 81.8959 64.2969 83.7721C65.3889 85.649 66.1467 87.9094 65.4958 89.9807C64.7791 92.2604 62.5488 93.7222 60.3185 94.5814C58.978 95.0976 57.5802 95.4671 56.1592 95.6808C55.1271 95.8359 53.8252 95.5012 53.1923 94.6162C52.4403 93.5651 53.0461 92.1575 53.4846 91.1045C55.1071 87.2098 55.5984 82.8942 55.0859 78.7176C54.6004 74.7624 53.2489 70.3335 50.7327 67.1706C50.1031 66.3796 49.0993 65.8003 48.5939 64.9327C47.6789 63.3628 50.1372 61.1834 51.573 61.1629C52.9283 61.1435 54.225 61.728 55.4529 62.2345C56.7522 62.7707 58.0747 63.2444 59.3649 63.805C60.0835 64.1172 60.936 64.7454 60.6623 65.4791C60.5342 65.8222 60.1923 66.0288 59.8787 66.218C59.0327 66.7284 58.1255 67.5478 58.329 68.5145C58.5389 69.5103 59.9515 69.8713 60.7943 69.3004C61.6371 68.7295 61.9172 67.5825 61.7704 66.5752C61.7112 66.1691 61.6011 65.7256 61.8065 65.3697C62.0569 64.9352 62.6402 64.8561 63.1412 64.8368C66.052 64.7216 68.9777 64.9777 71.8242 65.5963C72.5061 65.7443 73.3328 66.0861 73.3515 66.7838C73.3708 67.5034 72.5029 67.8857 71.7869 67.9597C69.3872 68.2075 64.9465 66.9376 63.7825 70.0355C63.3079 71.2989 63.9183 72.6808 64.7566 73.6366C67.1627 76.3824 71.5435 78.415 75.1942 77.5584C76.1046 77.3447 79.564 75.3931 80.298 76.3226C80.3927 76.4423 80.4313 76.5961 80.4551 76.7467C80.7565 78.6326 78.9633 80.5468 77.8784 81.8933C76.1213 84.0752 74.0642 86.0133 71.7908 87.6494C71.1456 88.1135 70.4599 88.5917 69.6216 88.4546C69.3396 88.4082 69.0994 88.3085 68.8908 88.1701V88.1707Z" fill="#F85F00"/>
<path d="M70.7013 92.1523C71.096 92.9035 71.7347 93.3283 72.6625 93.6134C72.3657 93.522 70.8836 94.6098 70.5591 94.7803C69.7137 95.2244 68.8567 95.6467 67.9881 96.0431C66.3102 96.8104 64.5899 97.4868 62.8341 98.0539C53.7879 100.975 40.7407 101.819 34.3698 93.2504C32.3732 90.5651 31.3398 87.1242 32.2508 83.8274C32.9095 81.4428 33.6461 79.2074 34.5552 76.889C34.5552 76.889 37.1351 77.1097 37.139 77.1097C36.6007 77.066 35.7431 80.9375 35.5969 81.4196C34.5912 84.7421 34.1676 88.6503 36.4385 91.5441C38.3784 94.0157 41.467 95.4452 44.4107 96.3238C50.349 98.0964 56.4592 97.4244 62.2945 95.5527C62.9396 95.3454 70.8076 92.3531 70.702 92.1517L70.7013 92.1523Z" fill="#F85F00"/>
<path d="M94.528 70.0265L93.6549 70.3109C94.0405 70.1854 94.6116 68.4592 94.7803 68.0781C95.4783 66.5057 96.012 64.8651 96.4151 63.1935C96.5825 62.5003 96.9804 61.9018 97.4298 61.3592C97.7762 60.9408 98.4619 59.7282 99.0781 59.7134C99.2635 59.7089 99.4219 59.8666 99.4799 60.0429C99.7683 60.9215 99.0704 62.1553 98.8167 62.9934C98.0524 65.5184 97.2817 67.9707 96.0648 70.3232C95.6045 69.9511 95.0978 69.8404 94.528 70.0258V70.0265Z" fill="#F85F00"/>
<path d="M46.0983 64.9108L48.939 60.2328C49.0523 60.2482 49.2191 60.303 49.3697 60.3699L45.204 67.5446C44.9966 67.9012 44.3856 68.0312 43.9781 67.9778C42.2577 67.7518 40.6493 66.9222 39.4743 65.6671C39.1337 65.3034 38.8414 64.737 39.0654 64.2633L42.9653 56.0266C43.3001 56.1695 43.3303 56.425 43.2016 56.6966C42.4 58.3907 41.5823 59.9979 40.8644 61.7421C41.3028 61.1288 41.5243 60.4349 41.9177 59.7835L43.5454 56.5821C44.9625 58.112 46.6861 59.2409 48.6428 60.0526L46.7595 63.5276L46.0976 64.9114L46.0983 64.9108ZM45.0636 67.0812L43.9021 66.9016C42.3761 66.3345 40.4877 65.4276 39.4987 64.1461C39.5644 64.4899 39.7331 64.849 39.9881 65.1226C41.0949 66.3069 42.5365 67.049 44.1706 67.2472C44.4822 67.2852 44.8415 67.1764 45.0636 67.0812Z" fill="#F85F00"/>
<path d="M39.9269 71.1361L37.2993 70.8458L39.4002 67.0811L41.4612 68.4148L39.9269 71.1361Z" fill="#F85F00"/>
</g>
<defs>
<clipPath id="clip0_75_1198">
<rect width="101" height="100.094" fill="white"/>
</clipPath>
</defs>
</svg>
